<?xml version="1.0" standalone="no"?>
<!DOCTYPE svg PUBLIC "-//W3C//DTD SVG 20010904//EN"
 "http://www.w3.org/TR/2001/REC-SVG-20010904/DTD/svg10.dtd">
<svg version="1.0" xmlns="http://www.w3.org/2000/svg"
 width="220.000000pt" height="220.000000pt" viewBox="0 0 220.000000 220.000000"
 preserveAspectRatio="xMidYMid meet">
<metadata>
Created by potrace 1.11, written by Peter Selinger 2001-2013
</metadata>
<g transform="translate(0.000000,220.000000) scale(0.100000,-0.100000)"
fill="#000000" stroke="none">
<path d="M1092 2049 c-22 -8 -66 -92 -287 -554 -29 -60 -99 -204 -155 -320
-56 -115 -124 -255 -150 -310 -26 -55 -94 -194 -150 -310 -112 -230 -122 -271
-90 -342 39 -86 91 -116 207 -119 46 -1 99 3 118 9 45 13 97 61 120 110 9 20
29 48 43 63 51 51 74 55 340 56 136 0 263 -3 282 -7 53 -11 86 -40 126 -108
40 -69 52 -80 109 -107 30 -14 63 -19 125 -19 111 1 153 12 200 55 69 63 80
150 31 255 -16 35 -77 163 -136 284 -59 121 -129 265 -155 320 -54 112 -160
333 -274 568 -42 86 -110 227 -151 312 -59 124 -80 157 -100 165 -15 6 -27 10
-28 9 -1 0 -12 -4 -25 -10z"/>
</g>
</svg>
